HIERARCHY
ROOT Hips
{
	OFFSET 0.000000 103.266502 0.000000
	CHANNELS 6 Xposition Yposition Zposition Xrotation Yrotation Zrotation 
	JOINT Spine
	{
		OFFSET -0.002400 12.777504 0.315300
		CHANNELS 3 Xrotation Yrotation Zrotation
		JOINT Spine1
		{
			OFFSET -0.002067 5.816869 0.032633
			CHANNELS 3 Xrotation Yrotation Zrotation
			JOINT Spine1_split
			{
				OFFSET -0.002067 5.816869 0.032633
				CHANNELS 3 Xrotation Yrotation Zrotation
				JOINT Spine2
				{
					OFFSET -0.002067 5.816869 0.032633
					CHANNELS 3 Xrotation Yrotation Zrotation
					JOINT Neck
					{
						OFFSET -0.003700 21.199493 -0.826900
						CHANNELS 3 Xrotation Yrotation Zrotation
						JOINT Head
						{
							OFFSET 0.000000 20.442200 4.834800
							CHANNELS 3 Xrotation Yrotation Zrotation
							JOINT HeadTop_End
							{
								OFFSET 0.000000 34.668396 4.968400
								CHANNELS 3 Xrotation Yrotation Zrotation
								End Site
								{
									OFFSET 0.000000 0.000000 0.000000
								}
							}
						}
					}
					JOINT LeftShoulder
					{
						OFFSET 3.288150 8.794197 -1.372250
						CHANNELS 3 Xrotation Yrotation Zrotation
						JOINT LeftShoulder_split
						{
							OFFSET 3.288150 8.794197 -1.372250
							CHANNELS 3 Xrotation Yrotation Zrotation
							JOINT LeftArm
							{
								OFFSET 11.953299 -2.279007 -0.146200
								CHANNELS 3 Xrotation Yrotation Zrotation
								JOINT LeftForeArm
								{
									OFFSET 18.448900 0.000000 0.000000
									CHANNELS 3 Xrotation Yrotation Zrotation
									JOINT LeftHand
									{
										OFFSET 29.527798 0.000000 0.000000
										CHANNELS 3 Xrotation Yrotation Zrotation
										JOINT LeftHandThumb1
										{
											OFFSET 10.739754 -2.369614 9.225399
											CHANNELS 3 Xrotation Yrotation Zrotation
											JOINT LeftHandThumb2
											{
												OFFSET 4.926170 -2.844131 2.844125
												CHANNELS 3 Xrotation Yrotation Zrotation
												JOINT LeftHandThumb3
												{
													OFFSET 4.614891 -2.664413 2.664409
													CHANNELS 3 Xrotation Yrotation Zrotation
													JOINT LeftHandThumb4
													{
														OFFSET 4.432465 -2.559082 2.559083
														CHANNELS 3 Xrotation Yrotation Zrotation
														End Site
														{
															OFFSET 0.000000 0.000000 0.000000
														}
													}
												}
											}
										}
										JOINT LeftHandIndex1
										{
											OFFSET 26.467674 0.187653 6.405298
											CHANNELS 3 Xrotation Yrotation Zrotation
											JOINT LeftHandIndex2
											{
												OFFSET 8.792900 0.000000 0.000000
												CHANNELS 3 Xrotation Yrotation Zrotation
												JOINT LeftHandIndex3
												{
													OFFSET 10.075203 0.000000 0.000000
													CHANNELS 3 Xrotation Yrotation Zrotation
													End Site
													{
														OFFSET 0.000000 0.000000 0.000000
													}
												}
											}
										}
										JOINT LeftHandMiddle1
										{
											OFFSET 25.764404 0.000000 0.000000
											CHANNELS 3 Xrotation Yrotation Zrotation
											JOINT LeftHandMiddle2
											{
												OFFSET 9.393974 0.000000 0.000000
												CHANNELS 3 Xrotation Yrotation Zrotation
												JOINT LeftHandMiddle3
												{
													OFFSET 10.771950 0.000000 0.000000
													CHANNELS 3 Xrotation Yrotation Zrotation
													End Site
													{
														OFFSET 0.000000 0.000000 0.000000
													}
												}
											}
										}
										JOINT LeftHandRing1
										{
											OFFSET 24.660927 0.144547 -6.225808
											CHANNELS 3 Xrotation Yrotation Zrotation
											JOINT LeftHandRing2
											{
												OFFSET 9.393799 0.000000 0.000000
												CHANNELS 3 Xrotation Yrotation Zrotation
												JOINT LeftHandRing3
												{
													OFFSET 9.928497 0.000000 0.000000
													CHANNELS 3 Xrotation Yrotation Zrotation
													End Site
													{
														OFFSET 0.000000 0.000000 0.000000
													}
												}
											}
										}
										JOINT LeftHandPinky1
										{
											OFFSET 23.655350 0.125290 -12.815412
											CHANNELS 3 Xrotation Yrotation Zrotation
											JOINT LeftHandPinky2
											{
												OFFSET 8.425102 0.000000 0.000000
												CHANNELS 3 Xrotation Yrotation Zrotation
												JOINT LeftHandPinky3
												{
													OFFSET 8.147003 0.000000 0.000000
													CHANNELS 3 Xrotation Yrotation Zrotation
													End Site
													{
														OFFSET 0.000000 0.000000 0.000000
													}
												}
											}
										}
									}
								}
							}
						}
					}
					JOINT RightShoulder
					{
						OFFSET -3.249400 8.794197 -1.372250
						CHANNELS 3 Xrotation Yrotation Zrotation
						JOINT RightShoulder_split
						{
							OFFSET -3.249400 8.794197 -1.372250
							CHANNELS 3 Xrotation Yrotation Zrotation
							JOINT RightArm
							{
								OFFSET -11.953299 -2.279007 -0.146200
								CHANNELS 3 Xrotation Yrotation Zrotation
								JOINT RightForeArm
								{
									OFFSET -18.448900 0.000000 0.000000
									CHANNELS 3 Xrotation Yrotation Zrotation
									JOINT RightHand
									{
										OFFSET -29.527802 0.000000 0.000000
										CHANNELS 3 Xrotation Yrotation Zrotation
										JOINT RightHandThumb1
										{
											OFFSET -10.739754 -2.369614 9.225399
											CHANNELS 3 Xrotation Yrotation Zrotation
											JOINT RightHandThumb2
											{
												OFFSET -4.926170 -2.844131 2.844125
												CHANNELS 3 Xrotation Yrotation Zrotation
												JOINT RightHandThumb3
												{
													OFFSET -4.614891 -2.664413 2.664409
													CHANNELS 3 Xrotation Yrotation Zrotation
													JOINT RightHandThumb4
													{
														OFFSET -4.432465 -2.559082 2.559083
														CHANNELS 3 Xrotation Yrotation Zrotation
														End Site
														{
															OFFSET 0.000000 0.000000 0.000000
														}
													}
												}
											}
										}
										JOINT RightHandIndex1
										{
											OFFSET -26.467674 0.187653 6.405298
											CHANNELS 3 Xrotation Yrotation Zrotation
											JOINT RightHandIndex2
											{
												OFFSET -8.792900 0.000000 0.000000
												CHANNELS 3 Xrotation Yrotation Zrotation
												JOINT RightHandIndex3
												{
													OFFSET -10.075203 0.000000 0.000000
													CHANNELS 3 Xrotation Yrotation Zrotation
													End Site
													{
														OFFSET 0.000000 0.000000 0.000000
													}
												}
											}
										}
										JOINT RightHandMiddle1
										{
											OFFSET -25.764404 0.000000 0.000000
											CHANNELS 3 Xrotation Yrotation Zrotation
											JOINT RightHandMiddle2
											{
												OFFSET -9.393974 0.000000 0.000000
												CHANNELS 3 Xrotation Yrotation Zrotation
												JOINT RightHandMiddle3
												{
													OFFSET -10.771950 0.000000 0.000000
													CHANNELS 3 Xrotation Yrotation Zrotation
													End Site
													{
														OFFSET 0.000000 0.000000 0.000000
													}
												}
											}
										}
										JOINT RightHandRing1
										{
											OFFSET -24.660927 0.144547 -6.225808
											CHANNELS 3 Xrotation Yrotation Zrotation
											JOINT RightHandRing2
											{
												OFFSET -9.393799 0.000000 0.000000
												CHANNELS 3 Xrotation Yrotation Zrotation
												JOINT RightHandRing3
												{
													OFFSET -9.928497 0.000000 0.000000
													CHANNELS 3 Xrotation Yrotation Zrotation
													End Site
													{
														OFFSET 0.000000 0.000000 0.000000
													}
												}
											}
										}
										JOINT RightHandPinky1
										{
											OFFSET -23.655350 0.125290 -12.815412
											CHANNELS 3 Xrotation Yrotation Zrotation
											JOINT RightHandPinky2
											{
												OFFSET -8.425102 0.000000 0.000000
												CHANNELS 3 Xrotation Yrotation Zrotation
												JOINT RightHandPinky3
												{
													OFFSET -8.147003 0.000000 0.000000
													CHANNELS 3 Xrotation Yrotation Zrotation
													End Site
													{
														OFFSET 0.000000 0.000000 0.000000
													}
												}
											}
										}
									}
								}
							}
						}
					}
				}
			}
		}
	}
	JOINT LeftUpLeg
	{
		OFFSET 11.394100 -6.187798 -0.413800
		CHANNELS 3 Xrotation Yrotation Zrotation
		JOINT LeftLeg
		{
			OFFSET 0.430247 -32.302673 3.732800
			CHANNELS 3 Xrotation Yrotation Zrotation
			JOINT LeftFoot
			{
				OFFSET -0.430247 -48.264931 -6.423300
				CHANNELS 3 Xrotation Yrotation Zrotation
				JOINT LeftToeBase
				{
					OFFSET 4.230900 -16.068199 23.438400
					CHANNELS 3 Xrotation Yrotation Zrotation
					JOINT LeftToe_End
					{
						OFFSET 4.510700 0.695400 19.974600
						CHANNELS 3 Xrotation Yrotation Zrotation
						End Site
						{
							OFFSET 0.000000 0.000000 0.000000
						}
					}
				}
			}
		}
	}
	JOINT RightUpLeg
	{
		OFFSET -11.333700 -6.187798 -0.413800
		CHANNELS 3 Xrotation Yrotation Zrotation
		JOINT RightLeg
		{
			OFFSET -0.430392 -32.302628 3.733000
			CHANNELS 3 Xrotation Yrotation Zrotation
			JOINT RightFoot
			{
				OFFSET 0.430392 -48.264973 -6.423500
				CHANNELS 3 Xrotation Yrotation Zrotation
				JOINT RightToeBase
				{
					OFFSET -4.230900 -16.068199 23.438400
					CHANNELS 3 Xrotation Yrotation Zrotation
					JOINT RightToe_End
					{
						OFFSET -4.510700 0.695400 19.974600
						CHANNELS 3 Xrotation Yrotation Zrotation
						End Site
						{
							OFFSET 0.000000 0.000000 0.000000
						}
					}
				}
			}
		}
	}
}
MOTION
Frames: 4
Frame Time: 0.016667
6.225058 89.393814 -2.429502 163.247805 -84.983235 172.894095 26.987379 -10.559003 9.008487 22.828258 -3.476727 1.160359 0.000000 0.000000 0.000000 22.831249 -3.513607 1.117198 5.617715 -1.103830 -3.287036 -24.500428 16.764402 -15.915162 -0.000002 -0.000000 0.000000 -0.574384 -9.850082 11.644919 0.000000 0.000000 0.000000 7.953497 23.817332 -68.381518 -0.000275 -83.763002 -0.000283 -0.593565 -15.951282 -35.333337 -6.141202 -11.690807 -6.761685 9.914111 42.595512 3.409871 -0.422802 8.108102 27.509116 -0.000000 -0.000003 -0.000000 0.255322 3.378217 -45.814348 5.654089 5.847763 -88.067455 -0.000001 0.000000 0.000004 -0.461467 3.841586 -39.722673 6.450752 5.820346 -95.892864 0.000002 0.000000 0.000000 0.469726 4.966827 -39.799437 8.181045 5.368617 -113.502991 -0.000001 0.000000 0.000002 -3.762416 9.063702 -45.253825 5.342534 5.829000 -85.005317 0.000001 0.000001 0.000000 6.747073 21.058549 15.296864 0.000000 0.000000 0.000000 -49.806808 49.425858 42.155873 -0.000013 110.780976 0.000024 -30.368647 3.752450 19.633082 -7.341079 13.749668 7.412326 9.855758 -44.489103 -3.903266 -0.115788 -14.513090 -28.973878 -0.000001 -0.000003 -0.000002 -0.124374 -2.384781 45.108871 4.500584 -4.654541 88.071157 -0.000002 0.000001 -0.000000 -0.761619 -2.932902 39.031068 5.133887 -4.632753 95.881670 -0.000002 0.000000 0.000001 0.154764 -4.068811 39.122664 6.509735 -4.273591 113.462898 -0.000002 -0.000002 -0.000000 -4.198873 -8.025512 44.637769 4.252907 -4.639633 85.014805 -0.000001 0.000000 0.000000 -18.001503 16.957642 16.869020 44.791305 10.424726 -6.838974 -14.421448 13.795205 -18.895344 -1.594027 0.000012 0.000002 0.000000 -0.000002 -0.000000 -49.750435 13.473457 -13.581171 47.967657 -3.869992 -8.379575 -3.767592 19.413173 14.056890 -0.012999 0.000008 -0.000001 -0.000000 -0.000000 0.000000 
6.178487 89.297546 -2.693155 167.163826 -87.490140 176.901285 26.585115 -10.520014 8.897750 22.569696 -3.466838 1.087104 0.000000 0.000000 0.000000 22.571362 -3.500725 1.047262 5.617278 -0.871029 -3.422224 -22.991144 17.514680 -15.694497 -0.000003 -0.000000 -0.000000 -0.552094 -9.621074 10.944535 0.000000 0.000000 0.000000 4.435609 26.897720 -66.445426 -0.007913 -87.948931 -0.007976 -0.585588 -15.037158 -35.679508 -6.141202 -11.690808 -6.761684 9.914113 42.595519 3.409874 -0.422803 8.108104 27.509116 0.000000 0.000002 -0.000000 0.255319 3.378216 -45.814348 5.654088 5.847762 -88.067448 0.000001 -0.000003 -0.000004 -0.461465 3.841585 -39.722676 6.450756 5.820348 -95.892871 -0.000000 0.000000 0.000002 0.469729 4.966827 -39.799434 8.181046 5.368619 -113.502991 -0.000001 0.000001 0.000003 -3.762420 9.063701 -45.253821 5.342534 5.828997 -85.005311 -0.000000 0.000001 -0.000004 6.677404 21.397934 15.512676 0.000000 0.000000 0.000000 -47.870743 45.703968 40.482934 0.000061 111.430397 -0.000071 -31.320102 4.487722 19.907220 -7.341082 13.749664 7.412324 9.855761 -44.489107 -3.903265 -0.115789 -14.513086 -28.973878 -0.000000 -0.000002 0.000000 -0.124376 -2.384787 45.108874 4.500584 -4.654545 88.071157 -0.000001 -0.000001 0.000000 -0.761623 -2.932903 39.031068 5.133887 -4.632751 95.881670 -0.000006 0.000002 -0.000001 0.154765 -4.068818 39.122668 6.509736 -4.273594 113.462898 0.000002 -0.000001 -0.000001 -4.198873 -8.025517 44.637769 4.252907 -4.639637 85.014805 0.000004 -0.000000 -0.000000 -18.321042 16.594735 17.156928 45.076766 10.406664 -6.302129 -14.193854 11.636845 -19.065414 -1.594027 0.000008 0.000001 0.000000 -0.000000 -0.000000 -48.521763 13.294325 -14.581921 49.006655 -3.935153 -8.361364 -4.559701 17.621116 14.332431 -0.012999 0.000010 -0.000002 -0.000000 0.000001 -0.000000 
6.133769 89.235504 -2.949648 108.436384 -90.364543 118.254248 26.081446 -10.517241 8.794425 22.258183 -3.473021 1.011014 0.000000 0.000000 0.000000 22.258229 -3.504561 0.974827 5.582332 -0.609717 -3.490657 -21.431950 18.334330 -15.324465 -0.000003 0.000000 -0.000001 -0.520524 -9.531915 10.234638 0.000000 0.000000 0.000000 1.463527 28.835467 -64.955065 0.002574 -92.579642 0.002551 -0.628407 -14.115732 -35.772429 -6.141204 -11.690811 -6.761684 9.914110 42.595519 3.409872 -0.422806 8.108104 27.509116 0.000002 0.000002 0.000000 0.255319 3.378218 -45.814348 5.654088 5.847760 -88.067455 0.000000 0.000000 0.000003 -0.461468 3.841586 -39.722669 6.450755 5.820346 -95.892878 -0.000001 0.000003 0.000006 0.469724 4.966828 -39.799434 8.181043 5.368616 -113.502991 -0.000002 -0.000002 -0.000002 -3.762420 9.063699 -45.253825 5.342535 5.829003 -85.005311 -0.000003 -0.000002 -0.000002 6.665674 21.639409 15.541469 0.000000 0.000000 0.000000 -46.863796 42.548356 39.774476 0.000067 111.812683 -0.000068 -31.896283 5.342524 20.119366 -7.341086 13.749667 7.412327 9.855757 -44.489107 -3.903265 -0.115789 -14.513090 -28.973878 0.000001 -0.000002 0.000002 -0.124375 -2.384784 45.108871 4.500584 -4.654546 88.071157 -0.000002 -0.000000 0.000001 -0.761624 -2.932900 39.031072 5.133887 -4.632752 95.881670 0.000001 0.000000 0.000000 0.154759 -4.068810 39.122671 6.509736 -4.273593 113.462891 0.000003 -0.000001 -0.000000 -4.198873 -8.025517 44.637772 4.252908 -4.639636 85.014805 -0.000003 -0.000000 0.000000 -18.706286 16.176116 17.452631 45.295499 10.387236 -5.772998 -13.932997 9.316622 -19.175411 -1.594027 0.000008 0.000002 0.000000 -0.000003 -0.000000 -47.112446 12.998376 -15.686544 49.916921 -4.016510 -8.287169 -5.327289 15.734823 14.606139 -0.012999 0.000008 -0.000002 0.000000 0.000000 0.000000 
6.081567 89.197502 -3.194191 155.915856 -93.043788 165.838222 25.486171 -10.568247 8.644260 21.901872 -3.506259 0.903637 0.000000 0.000000 0.000000 21.899859 -3.536339 0.871502 5.510136 -0.303579 -3.526260 -19.806043 19.269321 -14.830545 -0.000000 0.000000 0.000001 -0.487521 -9.491402 9.564240 0.000000 0.000000 0.000000 -0.653366 29.569805 -64.021084 0.000741 -97.278723 0.000748 -0.727241 -13.207217 -35.636758 -6.141203 -11.690811 -6.761684 9.914110 42.595515 3.409874 -0.422802 8.108102 27.509121 0.000002 -0.000001 0.000000 0.255320 3.378215 -45.814348 5.654092 5.847757 -88.067448 -0.000000 -0.000000 -0.000000 -0.461467 3.841585 -39.722673 6.450753 5.820344 -95.892871 -0.000002 0.000002 0.000003 0.469725 4.966827 -39.799437 8.181045 5.368616 -113.502991 0.000002 -0.000000 -0.000000 -3.762420 9.063701 -45.253821 5.342532 5.829003 -85.005311 -0.000000 0.000000 -0.000000 6.712780 21.856329 15.378769 0.000000 0.000000 0.000000 -46.521539 39.994128 39.770057 -0.000051 111.959081 0.000051 -32.012441 6.164899 20.344922 -7.341085 13.749663 7.412321 9.855756 -44.489100 -3.903265 -0.115787 -14.513088 -28.973878 -0.000000 -0.000000 -0.000001 -0.124375 -2.384788 45.108868 4.500584 -4.654545 88.071157 -0.000001 0.000002 -0.000001 -0.761622 -2.932906 39.031068 5.133887 -4.632747 95.881670 -0.000000 -0.000000 0.000001 0.154759 -4.068815 39.122671 6.509734 -4.273591 113.462898 -0.000002 -0.000000 -0.000002 -4.198870 -8.025520 44.637772 4.252909 -4.639634 85.014805 0.000000 -0.000000 0.000000 -19.109344 15.758390 17.763068 45.445869 10.364858 -5.333404 -13.658198 6.860946 -19.209880 -1.594027 0.000012 0.000002 -0.000000 -0.000002 0.000000 -45.599692 12.616449 -16.894300 50.723795 -4.107260 -8.124882 -6.066390 13.856739 14.855416 -0.012999 0.000009 -0.000002 0.000000 0.000001 -0.000000 
